Sex.Drive.DVDRip.ENG.DIV-X(djDEVASTATE™)


Source DVD 9 RENTAL


I Used TMPGEnc Authoring Works 4 To Rip To DIV-X With English Audio


General
Format                           : DivX
File size                        : 1.43 GiB
Duration                         : 1h 44mn
Overall bit rate                 : 1 957 Kbps

Video
ID                               : 0
Format                           : MPEG-4 Visual
Format settings, BVOP            : Yes
Format settings, QPel            : No
Format settings, GMC             : No warppoints
Format settings, Matrix          : Default (H.263)
Codec ID                         : DX50
Codec ID/Hint                    : DivX 5
Duration                         : 1h 44mn
Bit rate                         : 1 499 Kbps
Width                            : 720 pixels
Height                           : 576 pixels
Display aspect ratio             : 16:9
Frame rate                       : 25.000 fps
Standard                         : PAL
Resolution                       : 24 bits
Colorimetry                      : 4:2:0
Scan type                        : Progressive
Bits/(Pixel*Frame)               : 0.145
Stream size                      : 1.10 GiB (77%)
Title                            : Video
Writing library                  : DivX 6.6.1.4

Audio
ID                               : 1
Format                           : AC-3
Format/Info                      : Audio Coding 3
Codec ID                         : 2000
Duration                         : 1h 44mn
Bit rate mode                    : Constant
Bit rate                         : 448 Kbps
Channel(s)                       : 6 channels
Channel positions                : Front: L C R, Surround: L R, LFE
Sampling rate                    : 48.0 KHz
Stream size                      : 336 MiB (23%)
Alignment                        : Split accross interleaves
Interleave, duration             : 40 ms (1.00 video frame)
Interleave, preload duration     : 500 ms


ENJOY AND PLEASE SEED

ALSO IF YOU SEE ANY COMMENTS FROM A PIRATEBAY USER CALLED "tall2daworld"
ON MY TORRENTS TAKE NO NOTICE HE IS A RETARD



